# 3ds Max Wavefront OBJ Exporter v0.97b - (c)2007 guruware
# File Created: 26.08.2015 17:25:10

#
# object Box001
#

v  -49.3156 -61.6732 0.0000
v  -49.3156 29.8282 0.0000
v  44.3339 29.8282 0.0000
v  44.3339 -61.6732 0.0000
v  -49.3156 -61.6732 2.6756
v  44.3339 -61.6732 2.6756
v  44.3339 29.8282 2.6756
v  -49.3156 29.8282 2.6756
# 8 vertices

vn 0.0000 0.0000 -1.0000
vn 0.0000 0.0000 1.0000
vn 0.0000 -1.0000 0.0000
vn 1.0000 0.0000 0.0000
vn 0.0000 1.0000 0.0000
vn -1.0000 0.0000 0.0000
# 6 vertex normals

vt 0.6931 0.7418 0.0000
vt 0.6931 0.8706 0.0000
vt 0.5612 0.8706 0.0000
vt 0.5612 0.7418 0.0000
vt 0.6931 0.7361 0.0000
vt 0.5612 0.7361 0.0000
vt 0.5612 0.6072 0.0000
vt 0.6931 0.6072 0.0000
vt 0.8307 0.6110 0.0000
vt 0.6988 0.6110 0.0000
vt 0.6988 0.6072 0.0000
vt 0.8307 0.6072 0.0000
vt 0.8277 0.7550 0.0000
vt 0.6988 0.7550 0.0000
vt 0.6988 0.7512 0.0000
vt 0.8277 0.7512 0.0000
vt 0.8307 0.7455 0.0000
vt 0.6988 0.7455 0.0000
vt 0.6988 0.7418 0.0000
vt 0.8307 0.7418 0.0000
vt 0.8277 0.6204 0.0000
vt 0.6988 0.6204 0.0000
vt 0.6988 0.6167 0.0000
vt 0.8277 0.6167 0.0000
# 24 texture coords

g Box001
f 1/1/1 2/2/1 3/3/1 
f 3/3/1 4/4/1 1/1/1 
f 5/5/2 6/6/2 7/7/2 
f 7/7/2 8/8/2 5/5/2 
f 1/9/3 4/10/3 6/11/3 
f 6/11/3 5/12/3 1/9/3 
f 4/13/4 3/14/4 7/15/4 
f 7/15/4 6/16/4 4/13/4 
f 3/17/5 2/18/5 8/19/5 
f 8/19/5 7/20/5 3/17/5 
f 2/21/6 1/22/6 5/23/6 
f 5/23/6 8/24/6 2/21/6 
# 12 faces

#
# object Box002
#

v  -42.2528 -5.9267 0.0000
v  -42.2528 28.6305 0.0000
v  37.6744 28.6305 0.0000
v  37.6744 -5.9267 0.0000
v  -42.2528 -5.9267 87.1121
v  37.6744 -5.9267 87.1121
v  37.6744 28.6305 87.1121
v  -42.2528 28.6305 87.1121
v  37.6744 -5.9267 53.0572
v  -42.2528 -5.9267 53.0572
v  37.6744 28.6305 53.0572
v  -42.2528 28.6305 53.0572
v  -54.2930 -17.9669 53.0572
v  49.7146 -17.9669 53.0572
v  49.7146 -17.9669 70.0847
v  -54.2930 -17.9669 70.0847
v  49.7146 40.6707 53.0572
v  49.7146 40.6707 70.0847
v  -54.2930 40.6707 53.0572
v  -54.2930 40.6707 70.0847
# 20 vertices

vn 0.0000 0.0000 -1.0000
vn 0.0000 0.0000 1.0000
vn 0.0000 -1.0000 0.0000
vn 1.0000 0.0000 0.0000
vn 0.0000 1.0000 0.0000
vn -1.0000 0.0000 0.0000
vn 0.0000 -0.8165 0.5774
vn 0.8165 0.0000 0.5774
vn 0.0000 0.8165 0.5774
vn -0.8165 0.0000 0.5774
# 10 vertex normals

vt 0.4182 0.2820 0.0000
vt 0.4182 0.6120 0.0000
vt 0.0882 0.6120 0.0000
vt 0.0882 0.2820 0.0000
vt 0.2678 0.9205 0.0000
vt 0.0853 0.9205 0.0000
vt 0.0853 0.8416 0.0000
vt 0.2678 0.8416 0.0000
vt 0.2716 0.8763 0.0000
vt 0.1990 0.8763 0.0000
vt 0.1990 0.8644 0.0000
vt 0.2716 0.8644 0.0000
vt 0.2982 0.9288 0.0000
vt 0.2573 0.9288 0.0000
vt 0.2573 0.9169 0.0000
vt 0.2982 0.9169 0.0000
vt 0.2716 0.9025 0.0000
vt 0.1990 0.9025 0.0000
vt 0.1990 0.8906 0.0000
vt 0.2716 0.8906 0.0000
vt 0.2399 0.9554 0.0000
vt 0.1990 0.9554 0.0000
vt 0.1990 0.9435 0.0000
vt 0.2399 0.9435 0.0000
vt 0.2074 0.8525 0.0000
vt 0.2632 0.8525 0.0000
vt 0.2657 0.9050 0.0000
vt 0.2898 0.9050 0.0000
vt 0.2074 0.8787 0.0000
vt 0.2632 0.8787 0.0000
vt 0.2074 0.9316 0.0000
vt 0.2315 0.9316 0.0000
# 32 texture coords

g Box002
f 9/25/7 10/26/7 11/27/7 
f 11/27/7 12/28/7 9/25/7 
f 13/29/8 14/30/8 15/31/8 
f 15/31/8 16/32/8 13/29/8 
f 9/28/9 12/25/9 17/26/9 
f 17/26/9 18/27/9 9/28/9 
f 12/28/10 11/25/10 19/26/10 
f 19/26/10 17/27/10 12/28/10 
f 11/28/11 10/25/11 20/26/11 
f 20/26/11 19/27/11 11/28/11 
f 10/28/12 9/25/12 18/26/12 
f 18/26/12 20/27/12 10/28/12 
f 21/33/9 22/34/9 23/35/9 
f 23/35/9 24/36/9 21/33/9 
f 22/37/10 25/38/10 26/39/10 
f 26/39/10 23/40/10 22/37/10 
f 25/41/11 27/42/11 28/43/11 
f 28/43/11 26/44/11 25/41/11 
f 27/45/12 21/46/12 24/47/12 
f 24/47/12 28/48/12 27/45/12 
f 24/36/13 23/35/13 14/49/13 
f 14/49/13 13/50/13 24/36/13 
f 23/40/14 26/39/14 15/51/14 
f 15/51/14 14/52/14 23/40/14 
f 26/44/15 28/43/15 16/53/15 
f 16/53/15 15/54/15 26/44/15 
f 28/48/16 24/47/16 13/55/16 
f 13/55/16 16/56/16 28/48/16 
f 18/28/7 17/25/7 22/25/7 
f 22/25/7 21/28/7 18/28/7 
f 17/25/7 19/26/7 25/26/7 
f 25/26/7 22/25/7 17/25/7 
f 19/26/7 20/27/7 27/27/7 
f 27/27/7 25/26/7 19/26/7 
f 20/27/7 18/28/7 21/28/7 
f 21/28/7 27/27/7 20/27/7 
# 36 faces

