# 3ds Max Wavefront OBJ Exporter v0.97b - (c)2007 guruware
# File Created: 11.03.2016 23:44:16

#
# object Box001
#

v  -10.5386 -6.4083 -9.1026
v  -9.9739 -6.4083 -9.1026
v  -9.9739 -6.4083 -3.9657
v  -10.5386 -6.4083 -3.9657
v  -9.9739 -5.7621 -3.9657
v  -9.9739 -5.7621 -9.1026
v  -10.5386 -5.7621 -9.1026
v  -10.5386 -5.7621 -3.9657
v  -9.9739 -6.4083 -9.7085
v  -10.5386 -6.4083 -9.7085
v  -10.5386 -5.7621 -9.7085
v  -9.9739 -5.7621 -9.7085
v  -9.9739 -2.0015 -9.7085
v  -10.5386 -2.0015 -9.7085
v  -10.5386 -2.0015 -9.1026
v  -9.9739 -2.0015 -9.1026
v  -4.8600 -6.4083 -9.7085
v  -4.8600 -5.7621 -9.7085
v  -4.8600 -5.7621 -9.1026
v  -4.8600 -6.4083 -9.1026
v  10.6108 -6.4083 -9.1026
v  10.6108 -6.4083 -3.9657
v  10.0462 -6.4083 -3.9657
v  10.0462 -6.4083 -9.1026
v  10.0462 -5.7621 -3.9657
v  10.6108 -5.7621 -3.9657
v  10.6108 -5.7621 -9.1026
v  10.0462 -5.7621 -9.1026
v  10.0462 -6.4083 -9.7085
v  10.0462 -5.7621 -9.7085
v  10.6108 -5.7621 -9.7085
v  10.6108 -6.4083 -9.7085
v  10.0462 -2.0015 -9.7085
v  10.0462 -2.0015 -9.1026
v  10.6108 -2.0015 -9.1026
v  10.6108 -2.0015 -9.7085
v  4.9323 -6.4083 -9.7085
v  4.9323 -6.4083 -9.1026
v  4.9323 -5.7621 -9.1026
v  4.9323 -5.7621 -9.7085
v  -10.5386 -6.4083 10.3957
v  -10.5386 -6.4083 5.2588
v  -9.9739 -6.4083 5.2588
v  -9.9739 -6.4083 10.3957
v  -9.9739 -5.7621 5.2588
v  -10.5386 -5.7621 5.2588
v  -10.5386 -5.7621 10.3957
v  -9.9739 -5.7621 10.3957
v  -9.9739 -6.4083 11.0016
v  -9.9739 -5.7621 11.0016
v  -10.5386 -5.7621 11.0016
v  -10.5386 -6.4083 11.0016
v  -9.9739 -2.0015 11.0016
v  -9.9739 -2.0015 10.3957
v  -10.5386 -2.0015 10.3957
v  -10.5386 -2.0015 11.0016
v  -4.8600 -6.4083 11.0016
v  -4.8600 -6.4083 10.3957
v  -4.8600 -5.7621 10.3957
v  -4.8600 -5.7621 11.0016
v  10.6108 -6.4083 10.3957
v  10.0462 -6.4083 10.3957
v  10.0462 -6.4083 5.2588
v  10.6108 -6.4083 5.2588
v  10.0462 -5.7621 5.2588
v  10.0462 -5.7621 10.3957
v  10.6108 -5.7621 10.3957
v  10.6108 -5.7621 5.2588
v  10.0462 -6.4083 11.0016
v  10.6108 -6.4083 11.0016
v  10.6108 -5.7621 11.0016
v  10.0462 -5.7621 11.0016
v  10.0462 -2.0015 11.0016
v  10.6108 -2.0015 11.0016
v  10.6108 -2.0015 10.3957
v  10.0462 -2.0015 10.3957
v  4.9323 -6.4083 11.0016
v  4.9323 -5.7621 11.0016
v  4.9323 -5.7621 10.3957
v  4.9323 -6.4083 10.3957
v  -10.5386 7.1481 -9.1026
v  -10.5386 7.1481 -3.9657
v  -9.9739 7.1481 -3.9657
v  -9.9739 7.1481 -9.1026
v  -9.9739 6.5019 -3.9657
v  -10.5386 6.5019 -3.9657
v  -10.5386 6.5019 -9.1026
v  -9.9739 6.5019 -9.1026
v  -9.9739 7.1481 -9.7085
v  -9.9739 6.5019 -9.7085
v  -10.5386 6.5019 -9.7085
v  -10.5386 7.1481 -9.7085
v  -9.9739 2.7414 -9.7085
v  -9.9739 2.7414 -9.1026
v  -10.5386 2.7414 -9.1026
v  -10.5386 2.7414 -9.7085
v  -4.8600 7.1481 -9.7085
v  -4.8600 7.1481 -9.1026
v  -4.8600 6.5019 -9.1026
v  -4.8600 6.5019 -9.7085
v  10.6108 7.1481 -9.1026
v  10.0462 7.1481 -9.1026
v  10.0462 7.1481 -3.9657
v  10.6108 7.1481 -3.9657
v  10.0462 6.5019 -3.9657
v  10.0462 6.5019 -9.1026
v  10.6108 6.5019 -9.1026
v  10.6108 6.5019 -3.9657
v  10.0462 7.1481 -9.7085
v  10.6108 7.1481 -9.7085
v  10.6108 6.5019 -9.7085
v  10.0462 6.5019 -9.7085
v  10.0462 2.7414 -9.7085
v  10.6108 2.7414 -9.7085
v  10.6108 2.7414 -9.1026
v  10.0462 2.7414 -9.1026
v  4.9323 7.1481 -9.7085
v  4.9323 6.5019 -9.7085
v  4.9323 6.5019 -9.1026
v  4.9323 7.1481 -9.1026
v  -10.5386 7.1481 10.3957
v  -9.9739 7.1481 10.3957
v  -9.9739 7.1481 5.2588
v  -10.5386 7.1481 5.2588
v  -9.9739 6.5019 5.2588
v  -9.9739 6.5019 10.3957
v  -10.5386 6.5019 10.3957
v  -10.5386 6.5019 5.2588
v  -9.9739 7.1481 11.0016
v  -10.5386 7.1481 11.0016
v  -10.5386 6.5019 11.0016
v  -9.9739 6.5019 11.0016
v  -9.9739 2.7414 11.0016
v  -10.5386 2.7414 11.0016
v  -10.5386 2.7414 10.3957
v  -9.9739 2.7414 10.3957
v  -4.8600 7.1481 11.0016
v  -4.8600 6.5019 11.0016
v  -4.8600 6.5019 10.3957
v  -4.8600 7.1481 10.3957
v  10.6108 7.1481 10.3957
v  10.6108 7.1481 5.2588
v  10.0462 7.1481 5.2588
v  10.0462 7.1481 10.3957
v  10.0462 6.5019 5.2588
v  10.6108 6.5019 5.2588
v  10.6108 6.5019 10.3957
v  10.0462 6.5019 10.3957
v  10.0462 7.1481 11.0016
v  10.0462 6.5019 11.0016
v  10.6108 6.5019 11.0016
v  10.6108 7.1481 11.0016
v  10.0462 2.7414 11.0016
v  10.0462 2.7414 10.3957
v  10.6108 2.7414 10.3957
v  10.6108 2.7414 11.0016
v  4.9323 7.1481 11.0016
v  4.9323 7.1481 10.3957
v  4.9323 6.5019 10.3957
v  4.9323 6.5019 11.0016
# 160 vertices

vn 0.0000 -1.0000 -0.0000
vn 0.0000 1.0000 -0.0000
vn 0.0000 0.0000 1.0000
vn 1.0000 0.0000 -0.0000
vn 0.0000 0.0000 -1.0000
vn -1.0000 0.0000 -0.0000
# 6 vertex normals

vt 1.0000 0.5000 0.0000
vt 0.0000 0.5000 0.0000
vt 0.0000 0.0000 0.0000
vt 1.0000 0.0000 0.0000
vt 1.0000 1.0000 0.0000
vt 0.0000 1.0000 0.0000
vt 0.5000 0.0000 0.0000
vt 0.5000 1.0000 0.0000
# 8 texture coords

g Box001
f 1/1/1 2/2/1 3/3/1 
f 3/3/1 4/4/1 1/1/1 
f 5/4/2 6/1/2 7/2/2 
f 7/2/2 8/3/2 5/4/2 
f 4/3/3 3/4/3 5/5/3 
f 5/5/3 8/6/3 4/3/3 
f 2/7/4 6/8/4 5/6/4 
f 5/6/4 3/3/4 2/7/4 
f 9/3/5 10/4/5 11/5/5 
f 11/5/5 12/6/5 9/3/5 
f 1/7/6 7/8/6 11/6/6 
f 11/6/6 10/3/6 1/7/6 
f 10/5/1 9/6/1 2/2/1 
f 2/2/1 1/1/1 10/5/1 
f 13/5/2 14/6/2 15/2/2 
f 15/2/2 16/1/2 13/5/2 
f 17/4/4 18/5/4 19/8/4 
f 19/8/4 20/7/4 17/4/4 
f 4/4/6 8/5/6 7/8/6 
f 7/8/6 1/7/6 4/4/6 
f 2/7/1 9/4/1 17/4/1 
f 17/4/1 20/7/1 2/7/1 
f 9/4/5 12/5/5 18/5/5 
f 18/5/5 17/4/5 9/4/5 
f 12/5/2 6/8/2 19/8/2 
f 19/8/2 18/5/2 12/5/2 
f 6/8/3 2/7/3 20/7/3 
f 20/7/3 19/8/3 6/8/3 
f 12/5/5 11/6/5 14/6/5 
f 14/6/5 13/5/5 12/5/5 
f 11/6/6 7/2/6 15/2/6 
f 15/2/6 14/6/6 11/6/6 
f 7/2/3 6/1/3 16/1/3 
f 16/1/3 15/2/3 7/2/3 
f 6/1/4 12/5/4 13/5/4 
f 13/5/4 16/1/4 6/1/4 
f 21/1/1 22/4/1 23/3/1 
f 23/3/1 24/2/1 21/1/1 
f 25/4/2 26/3/2 27/2/2 
f 27/2/2 28/1/2 25/4/2 
f 22/3/3 26/6/3 25/5/3 
f 25/5/3 23/4/3 22/3/3 
f 24/7/6 23/3/6 25/6/6 
f 25/6/6 28/8/6 24/7/6 
f 29/3/5 30/6/5 31/5/5 
f 31/5/5 32/4/5 29/3/5 
f 21/7/4 32/3/4 31/6/4 
f 31/6/4 27/8/4 21/7/4 
f 32/5/1 21/1/1 24/2/1 
f 24/2/1 29/6/1 32/5/1 
f 33/5/2 34/1/2 35/2/2 
f 35/2/2 36/6/2 33/5/2 
f 37/4/6 38/7/6 39/8/6 
f 39/8/6 40/5/6 37/4/6 
f 22/4/4 21/7/4 27/8/4 
f 27/8/4 26/5/4 22/4/4 
f 24/7/1 38/7/1 37/4/1 
f 37/4/1 29/4/1 24/7/1 
f 29/4/5 37/4/5 40/5/5 
f 40/5/5 30/5/5 29/4/5 
f 30/5/2 40/5/2 39/8/2 
f 39/8/2 28/8/2 30/5/2 
f 28/8/3 39/8/3 38/7/3 
f 38/7/3 24/7/3 28/8/3 
f 30/5/5 33/5/5 36/6/5 
f 36/6/5 31/6/5 30/5/5 
f 31/6/4 36/6/4 35/2/4 
f 35/2/4 27/2/4 31/6/4 
f 27/2/3 35/2/3 34/1/3 
f 34/1/3 28/1/3 27/2/3 
f 28/1/6 34/1/6 33/5/6 
f 33/5/6 30/5/6 28/1/6 
f 41/1/1 42/4/1 43/3/1 
f 43/3/1 44/2/1 41/1/1 
f 45/4/2 46/3/2 47/2/2 
f 47/2/2 48/1/2 45/4/2 
f 42/3/5 46/6/5 45/5/5 
f 45/5/5 43/4/5 42/3/5 
f 44/7/4 43/3/4 45/6/4 
f 45/6/4 48/8/4 44/7/4 
f 49/3/3 50/6/3 51/5/3 
f 51/5/3 52/4/3 49/3/3 
f 41/7/6 52/3/6 51/6/6 
f 51/6/6 47/8/6 41/7/6 
f 52/5/1 41/1/1 44/2/1 
f 44/2/1 49/6/1 52/5/1 
f 53/5/2 54/1/2 55/2/2 
f 55/2/2 56/6/2 53/5/2 
f 57/4/4 58/7/4 59/8/4 
f 59/8/4 60/5/4 57/4/4 
f 42/4/6 41/7/6 47/8/6 
f 47/8/6 46/5/6 42/4/6 
f 44/7/1 58/7/1 57/4/1 
f 57/4/1 49/4/1 44/7/1 
f 49/4/3 57/4/3 60/5/3 
f 60/5/3 50/5/3 49/4/3 
f 50/5/2 60/5/2 59/8/2 
f 59/8/2 48/8/2 50/5/2 
f 48/8/5 59/8/5 58/7/5 
f 58/7/5 44/7/5 48/8/5 
f 50/5/3 53/5/3 56/6/3 
f 56/6/3 51/6/3 50/5/3 
f 51/6/6 56/6/6 55/2/6 
f 55/2/6 47/2/6 51/6/6 
f 47/2/5 55/2/5 54/1/5 
f 54/1/5 48/1/5 47/2/5 
f 48/1/4 54/1/4 53/5/4 
f 53/5/4 50/5/4 48/1/4 
f 61/1/1 62/2/1 63/3/1 
f 63/3/1 64/4/1 61/1/1 
f 65/4/2 66/1/2 67/2/2 
f 67/2/2 68/3/2 65/4/2 
f 64/3/5 63/4/5 65/5/5 
f 65/5/5 68/6/5 64/3/5 
f 62/7/6 66/8/6 65/6/6 
f 65/6/6 63/3/6 62/7/6 
f 69/3/3 70/4/3 71/5/3 
f 71/5/3 72/6/3 69/3/3 
f 61/7/4 67/8/4 71/6/4 
f 71/6/4 70/3/4 61/7/4 
f 70/5/1 69/6/1 62/2/1 
f 62/2/1 61/1/1 70/5/1 
f 73/5/2 74/6/2 75/2/2 
f 75/2/2 76/1/2 73/5/2 
f 77/4/6 78/5/6 79/8/6 
f 79/8/6 80/7/6 77/4/6 
f 64/4/4 68/5/4 67/8/4 
f 67/8/4 61/7/4 64/4/4 
f 62/7/1 69/4/1 77/4/1 
f 77/4/1 80/7/1 62/7/1 
f 69/4/3 72/5/3 78/5/3 
f 78/5/3 77/4/3 69/4/3 
f 72/5/2 66/8/2 79/8/2 
f 79/8/2 78/5/2 72/5/2 
f 66/8/5 62/7/5 80/7/5 
f 80/7/5 79/8/5 66/8/5 
f 72/5/3 71/6/3 74/6/3 
f 74/6/3 73/5/3 72/5/3 
f 71/6/4 67/2/4 75/2/4 
f 75/2/4 74/6/4 71/6/4 
f 67/2/5 66/1/5 76/1/5 
f 76/1/5 75/2/5 67/2/5 
f 66/1/6 72/5/6 73/5/6 
f 73/5/6 76/1/6 66/1/6 
f 81/1/2 82/4/2 83/3/2 
f 83/3/2 84/2/2 81/1/2 
f 85/4/1 86/3/1 87/2/1 
f 87/2/1 88/1/1 85/4/1 
f 82/3/3 86/6/3 85/5/3 
f 85/5/3 83/4/3 82/3/3 
f 84/7/4 83/3/4 85/6/4 
f 85/6/4 88/8/4 84/7/4 
f 89/3/5 90/6/5 91/5/5 
f 91/5/5 92/4/5 89/3/5 
f 81/7/6 92/3/6 91/6/6 
f 91/6/6 87/8/6 81/7/6 
f 92/5/2 81/1/2 84/2/2 
f 84/2/2 89/6/2 92/5/2 
f 93/5/1 94/1/1 95/2/1 
f 95/2/1 96/6/1 93/5/1 
f 97/4/4 98/7/4 99/8/4 
f 99/8/4 100/5/4 97/4/4 
f 82/4/6 81/7/6 87/8/6 
f 87/8/6 86/5/6 82/4/6 
f 84/7/2 98/7/2 97/4/2 
f 97/4/2 89/4/2 84/7/2 
f 89/4/5 97/4/5 100/5/5 
f 100/5/5 90/5/5 89/4/5 
f 90/5/1 100/5/1 99/8/1 
f 99/8/1 88/8/1 90/5/1 
f 88/8/3 99/8/3 98/7/3 
f 98/7/3 84/7/3 88/8/3 
f 90/5/5 93/5/5 96/6/5 
f 96/6/5 91/6/5 90/5/5 
f 91/6/6 96/6/6 95/2/6 
f 95/2/6 87/2/6 91/6/6 
f 87/2/3 95/2/3 94/1/3 
f 94/1/3 88/1/3 87/2/3 
f 88/1/4 94/1/4 93/5/4 
f 93/5/4 90/5/4 88/1/4 
f 101/1/2 102/2/2 103/3/2 
f 103/3/2 104/4/2 101/1/2 
f 105/4/1 106/1/1 107/2/1 
f 107/2/1 108/3/1 105/4/1 
f 104/3/3 103/4/3 105/5/3 
f 105/5/3 108/6/3 104/3/3 
f 102/7/6 106/8/6 105/6/6 
f 105/6/6 103/3/6 102/7/6 
f 109/3/5 110/4/5 111/5/5 
f 111/5/5 112/6/5 109/3/5 
f 101/7/4 107/8/4 111/6/4 
f 111/6/4 110/3/4 101/7/4 
f 110/5/2 109/6/2 102/2/2 
f 102/2/2 101/1/2 110/5/2 
f 113/5/1 114/6/1 115/2/1 
f 115/2/1 116/1/1 113/5/1 
f 117/4/6 118/5/6 119/8/6 
f 119/8/6 120/7/6 117/4/6 
f 104/4/4 108/5/4 107/8/4 
f 107/8/4 101/7/4 104/4/4 
f 102/7/2 109/4/2 117/4/2 
f 117/4/2 120/7/2 102/7/2 
f 109/4/5 112/5/5 118/5/5 
f 118/5/5 117/4/5 109/4/5 
f 112/5/1 106/8/1 119/8/1 
f 119/8/1 118/5/1 112/5/1 
f 106/8/3 102/7/3 120/7/3 
f 120/7/3 119/8/3 106/8/3 
f 112/5/5 111/6/5 114/6/5 
f 114/6/5 113/5/5 112/5/5 
f 111/6/4 107/2/4 115/2/4 
f 115/2/4 114/6/4 111/6/4 
f 107/2/3 106/1/3 116/1/3 
f 116/1/3 115/2/3 107/2/3 
f 106/1/6 112/5/6 113/5/6 
f 113/5/6 116/1/6 106/1/6 
f 121/1/2 122/2/2 123/3/2 
f 123/3/2 124/4/2 121/1/2 
f 125/4/1 126/1/1 127/2/1 
f 127/2/1 128/3/1 125/4/1 
f 124/3/5 123/4/5 125/5/5 
f 125/5/5 128/6/5 124/3/5 
f 122/7/4 126/8/4 125/6/4 
f 125/6/4 123/3/4 122/7/4 
f 129/3/3 130/4/3 131/5/3 
f 131/5/3 132/6/3 129/3/3 
f 121/7/6 127/8/6 131/6/6 
f 131/6/6 130/3/6 121/7/6 
f 130/5/2 129/6/2 122/2/2 
f 122/2/2 121/1/2 130/5/2 
f 133/5/1 134/6/1 135/2/1 
f 135/2/1 136/1/1 133/5/1 
f 137/4/4 138/5/4 139/8/4 
f 139/8/4 140/7/4 137/4/4 
f 124/4/6 128/5/6 127/8/6 
f 127/8/6 121/7/6 124/4/6 
f 122/7/2 129/4/2 137/4/2 
f 137/4/2 140/7/2 122/7/2 
f 129/4/3 132/5/3 138/5/3 
f 138/5/3 137/4/3 129/4/3 
f 132/5/1 126/8/1 139/8/1 
f 139/8/1 138/5/1 132/5/1 
f 126/8/5 122/7/5 140/7/5 
f 140/7/5 139/8/5 126/8/5 
f 132/5/3 131/6/3 134/6/3 
f 134/6/3 133/5/3 132/5/3 
f 131/6/6 127/2/6 135/2/6 
f 135/2/6 134/6/6 131/6/6 
f 127/2/5 126/1/5 136/1/5 
f 136/1/5 135/2/5 127/2/5 
f 126/1/4 132/5/4 133/5/4 
f 133/5/4 136/1/4 126/1/4 
f 141/1/2 142/4/2 143/3/2 
f 143/3/2 144/2/2 141/1/2 
f 145/4/1 146/3/1 147/2/1 
f 147/2/1 148/1/1 145/4/1 
f 142/3/5 146/6/5 145/5/5 
f 145/5/5 143/4/5 142/3/5 
f 144/7/6 143/3/6 145/6/6 
f 145/6/6 148/8/6 144/7/6 
f 149/3/3 150/6/3 151/5/3 
f 151/5/3 152/4/3 149/3/3 
f 141/7/4 152/3/4 151/6/4 
f 151/6/4 147/8/4 141/7/4 
f 152/5/2 141/1/2 144/2/2 
f 144/2/2 149/6/2 152/5/2 
f 153/5/1 154/1/1 155/2/1 
f 155/2/1 156/6/1 153/5/1 
f 157/4/6 158/7/6 159/8/6 
f 159/8/6 160/5/6 157/4/6 
f 142/4/4 141/7/4 147/8/4 
f 147/8/4 146/5/4 142/4/4 
f 144/7/2 158/7/2 157/4/2 
f 157/4/2 149/4/2 144/7/2 
f 149/4/3 157/4/3 160/5/3 
f 160/5/3 150/5/3 149/4/3 
f 150/5/1 160/5/1 159/8/1 
f 159/8/1 148/8/1 150/5/1 
f 148/8/5 159/8/5 158/7/5 
f 158/7/5 144/7/5 148/8/5 
f 150/5/3 153/5/3 156/6/3 
f 156/6/3 151/6/3 150/5/3 
f 151/6/4 156/6/4 155/2/4 
f 155/2/4 147/2/4 151/6/4 
f 147/2/5 155/2/5 154/1/5 
f 154/1/5 148/1/5 147/2/5 
f 148/1/6 154/1/6 153/5/6 
f 153/5/6 150/5/6 148/1/6 
# 288 faces

